# ShurikenStar converted from the user-supplied shuriken.blend
# Model by Clint Bellanger; Public Domain / CC0
o ShurikenStar
v 1.6000005 1.6000005 0.1099999
v 1.6000005 -1.6 0.1099999
v -1.6 -1.5999998 0.1099999
v -1.5999997 1.6000005 0.1099999
v 4.0390972e-08 -1.2910898 0.1100001
v 1.29109 -1.1990949e-08 0.1100001
v 3.7663096e-07 1.29109 0.1100001
v -1.2910898 3.6471005e-07 0.1100001
v 0.2990945 0.29909468 0.1099999
v 0.2990945 -0.29909447 0.1099999
v -0.29909462 -0.29909438 0.1099999
v -0.2990945 0.29909483 0.1099999
v -1.5062714 3.7185089e-07 0
v 3.7185083e-07 1.5062717 0
v 1.5062715 -6.7633579e-08 0
v -2.0429127e-08 -1.5062714 0
v -2.2399995 2.2400005 0
v -2.24 -2.2399998 0
v 2.2400005 -2.24 0
v 2.2400005 2.2400005 0
v 1.6000005 1.6000005 -0.10999997
v 1.6000005 -1.6 -0.10999997
v -1.6 -1.5999998 -0.10999997
v -1.5999997 1.6000005 -0.10999997
v 4.0390972e-08 -1.2910898 -0.11000003
v 1.29109 -1.1990949e-08 -0.11000003
v 3.7663096e-07 1.29109 -0.11000003
v -1.2910898 3.6471005e-07 -0.11000003
v 0.2990945 0.29909468 -0.10999997
v 0.2990945 -0.29909447 -0.10999997
v -0.29909462 -0.29909438 -0.10999997
v -0.2990945 0.29909483 -0.10999997
f 4 8 12 7
f 1 7 9 6
f 2 6 10 5
f 3 5 11 8
f 8 11 12
f 7 12 9
f 6 9 10
f 5 10 11
f 3 8 13 18
f 5 3 18 16
f 2 5 16 19
f 6 2 19 15
f 1 6 15 20
f 7 1 20 14
f 4 7 14 17
f 8 4 17 13
f 13 17 24 28
f 17 14 27 24
f 14 20 21 27
f 20 15 26 21
f 15 19 22 26
f 19 16 25 22
f 16 18 23 25
f 18 13 28 23
f 24 27 32 28
f 21 26 29 27
f 22 25 30 26
f 23 28 31 25
f 28 32 31
f 27 29 32
f 26 30 29
f 25 31 30
f 11 31 32 12
f 9 12 32 29
f 10 30 31 11
f 9 29 30 10
